<?xml version="1.0" encoding="UTF-8"?>
<!DOCTYPE svg PUBLIC "-//W3C//DTD SVG 1.1//EN" "http://www.w3.org/Graphics/SVG/1.1/DTD/svg11.dtd">
<svg xmlns="http://www.w3.org/2000/svg" version="1.1" width="489px" height="419px" style="shape-rendering:geometricPrecision; text-rendering:geometricPrecision; image-rendering:optimizeQuality; fill-rule:evenodd; clip-rule:evenodd" xmlns:xlink="http://www.w3.org/1999/xlink">
<g><path style="opacity:0.984" fill="#040399" d="M 241.5,27.5 C 253.544,26.375 258.377,31.7084 256,43.5C 249.547,48.4571 242.714,48.7904 235.5,44.5C 233.55,37.3443 235.55,31.6776 241.5,27.5 Z"/></g>
<g><path style="opacity:0.972" fill="#0904a3" d="M 209.5,50.5 C 219.078,48.4411 224.745,52.1077 226.5,61.5C 225.913,68.3984 222.08,71.7317 215,71.5C 204.854,70.0277 201.521,64.361 205,54.5C 206.397,52.9297 207.897,51.5964 209.5,50.5 Z"/></g>
<g><path style="opacity:0.994" fill="#0402a1" d="M 272.5,50.5 C 281.367,48.8235 286.7,52.3235 288.5,61C 288.021,68.4194 284.021,71.9194 276.5,71.5C 265.916,69.3295 263.083,63.3295 268,53.5C 269.652,52.6006 271.152,51.6006 272.5,50.5 Z"/></g>
<g><path style="opacity:1" fill="#5bc5ce" d="M 241.5,70.5 C 254.661,68.16 259.827,73.4934 257,86.5C 251.114,93.7185 244.447,94.3851 237,88.5C 233.88,81.1483 235.38,75.1483 241.5,70.5 Z"/></g>
<g><path style="opacity:1" fill="#33745c" d="M 197.5,79.5 C 202.28,78.6409 205.78,80.3075 208,84.5C 210.215,90.6538 209.882,96.6538 207,102.5C 206.097,103.701 204.931,104.535 203.5,105C 191.771,106.605 186.605,101.438 188,89.5C 189.386,84.2847 192.552,80.9514 197.5,79.5 Z"/></g>
<g><path style="opacity:1" fill="#35785f" d="M 288.5,80.5 C 294.734,79.3734 299.568,81.3734 303,86.5C 303.667,90.8333 303.667,95.1667 303,99.5C 300.081,105.025 295.581,106.858 289.5,105C 283.024,100.918 280.857,95.085 283,87.5C 283.967,84.3794 285.8,82.046 288.5,80.5 Z"/></g>
<g><path style="opacity:0.999" fill="#0402a4" d="M 215.5,150.5 C 214.496,151.683 213.662,153.016 213,154.5C 212.517,153.552 212.351,152.552 212.5,151.5C 211.448,151.649 210.448,151.483 209.5,151C 210.696,150.346 210.696,149.846 209.5,149.5C 208.833,150.5 208.167,151.5 207.5,152.5C 207.331,151.603 206.998,150.603 206.5,149.5C 205.694,152.362 204.361,152.862 202.5,151C 203.5,149.333 204.833,148 206.5,147C 204.552,146.017 202.718,144.85 201,143.5C 200.667,144.833 200.333,146.167 200,147.5C 199.333,144.833 198.667,144.833 198,147.5C 196.462,145.671 196.962,144.171 199.5,143C 197.956,141.813 196.289,141.48 194.5,142C 195.308,142.308 195.975,142.808 196.5,143.5C 195.358,145.378 194.358,147.212 193.5,149C 193.833,149.333 194.167,149.667 194.5,150C 193.24,151.113 192.073,151.28 191,150.5C 190.167,152 189,153.167 187.5,154C 188.449,154.617 189.282,154.451 190,153.5C 190.826,155.405 191.993,155.739 193.5,154.5C 191.019,153.14 191.352,152.14 194.5,151.5C 195.262,152.628 195.929,153.795 196.5,155C 191.703,156.25 191.37,158.083 195.5,160.5C 194.359,161.425 194.359,162.259 195.5,163C 194.956,163.717 194.289,164.217 193.5,164.5C 181.667,156.078 169.001,148.911 155.5,143C 133.844,135.724 112.177,135.724 90.5,143C 75.1837,149.074 60.6837,156.574 47,165.5C 42.0124,161.846 37.679,157.512 34,152.5C 33.3333,150.5 33.3333,148.5 34,146.5C 45.3361,135.414 58.5028,127.247 73.5,122C 114.987,105.94 154.653,109.606 192.5,133C 200.595,138.368 208.261,144.202 215.5,150.5 Z"/></g>
<g><path style="opacity:0.997" fill="#0603a6" d="M 262.5,207.5 C 258.167,212.167 253.833,216.833 249.5,221.5C 248.596,220.791 248.263,219.791 248.5,218.5C 246.436,218.313 244.436,217.813 242.5,217C 239.516,212.509 235.849,209.009 231.5,206.5C 219.231,192.227 206.565,178.227 193.5,164.5C 194.289,164.217 194.956,163.717 195.5,163C 194.359,162.259 194.359,161.425 195.5,160.5C 191.37,158.083 191.703,156.25 196.5,155C 195.929,153.795 195.262,152.628 194.5,151.5C 191.352,152.14 191.019,153.14 193.5,154.5C 191.993,155.739 190.826,155.405 190,153.5C 189.282,154.451 188.449,154.617 187.5,154C 189,153.167 190.167,152 191,150.5C 192.073,151.28 193.24,151.113 194.5,150C 194.167,149.667 193.833,149.333 193.5,149C 194.358,147.212 195.358,145.378 196.5,143.5C 195.975,142.808 195.308,142.308 194.5,142C 196.289,141.48 197.956,141.813 199.5,143C 196.962,144.171 196.462,145.671 198,147.5C 198.667,144.833 199.333,144.833 200,147.5C 200.333,146.167 200.667,144.833 201,143.5C 202.718,144.85 204.552,146.017 206.5,147C 204.833,148 203.5,149.333 202.5,151C 204.361,152.862 205.694,152.362 206.5,149.5C 206.998,150.603 207.331,151.603 207.5,152.5C 208.167,151.5 208.833,150.5 209.5,149.5C 210.696,149.846 210.696,150.346 209.5,151C 210.448,151.483 211.448,151.649 212.5,151.5C 212.351,152.552 212.517,153.552 213,154.5C 213.662,153.016 214.496,151.683 215.5,150.5C 220.426,153.921 224.926,157.921 229,162.5C 234.341,169.337 239.841,176.004 245.5,182.5C 255.598,171.901 265.931,161.401 276.5,151C 285.319,143.758 294.319,136.758 303.5,130C 318.035,122.155 333.368,116.489 349.5,113C 371.979,110.024 393.645,113.024 414.5,122C 429.503,126.911 442.669,134.745 454,145.5C 455.187,147.044 455.52,148.711 455,150.5C 452.507,156.157 449.507,161.49 446,166.5C 426.881,155.023 406.714,145.857 385.5,139C 366.878,135.531 348.878,137.531 331.5,145C 323.005,149.413 314.672,154.08 306.5,159C 289.438,173.218 274.771,189.384 262.5,207.5 Z"/></g>
<g><path style="opacity:0.979" fill="#0302a6" d="M 428.5,171.5 C 433.605,173.887 438.605,176.554 443.5,179.5C 444.666,197.824 444.833,216.158 444,234.5C 439.574,238.634 434.408,241.634 428.5,243.5C 427.178,219.434 427.178,195.434 428.5,171.5 Z"/></g>
<g><path style="opacity:0.96" fill="#0101a6" d="M 60.5,174.5 C 61.5,174.5 62.5,174.5 63.5,174.5C 63.833,197.176 63.4997,219.843 62.5,242.5C 57.3518,240.895 52.3518,238.895 47.5,236.5C 46.6764,233.215 46.1764,229.882 46,226.5C 45.0664,211.445 45.3998,196.445 47,181.5C 51.2316,178.469 55.7316,176.135 60.5,174.5 Z"/></g>
<g><path style="opacity:0.998" fill="#d22e21" d="M 231.5,206.5 C 235.849,209.009 239.516,212.509 242.5,217C 244.436,217.813 246.436,218.313 248.5,218.5C 248.263,219.791 248.596,220.791 249.5,221.5C 248.252,224.72 247.252,228.053 246.5,231.5C 230.898,252.935 211.898,270.768 189.5,285C 132.628,315.35 79.7942,309.517 31,267.5C 30.3333,266.833 30.3333,266.167 31,265.5C 34,261.5 37,257.5 40,253.5C 41.4972,251.323 43.4972,249.99 46,249.5C 58.0294,255.765 70.196,261.932 82.5,268C 115.06,282.487 146.393,280.154 176.5,261C 198,246 216.334,227.833 231.5,206.5 Z"/></g>
<g><path style="opacity:1" fill="#34765e" d="M 262.5,207.5 C 278.043,229.543 297.043,248.043 319.5,263C 327.977,267.537 336.644,271.37 345.5,274.5C 346.753,277.601 346.587,280.935 345,284.5C 342.224,286.14 340.224,285.473 339,282.5C 338.552,284.224 337.718,284.891 336.5,284.5C 338.183,288.236 339.016,292.236 339,296.5C 340.216,294.038 340.882,291.371 341,288.5C 342.385,289.551 343.385,290.884 344,292.5C 345.333,290.833 346.667,289.167 348,287.5C 348.72,289.112 348.554,290.612 347.5,292C 348.833,292.333 350.167,292.667 351.5,293C 349.956,293.29 348.623,293.956 347.5,295C 350.649,295.274 353.649,294.608 356.5,293C 356.167,292.667 355.833,292.333 355.5,292C 360.525,289.99 361.192,290.656 357.5,294C 362.097,294.562 362.43,295.728 358.5,297.5C 358.167,296.833 357.833,296.167 357.5,295.5C 356.749,296.376 356.249,297.376 356,298.5C 354.175,297.429 353.008,298.096 352.5,300.5C 354.435,301.213 354.768,302.213 353.5,303.5C 322.989,297.912 296.656,284.412 274.5,263C 264.093,253.274 254.759,242.774 246.5,231.5C 247.252,228.053 248.252,224.72 249.5,221.5C 253.833,216.833 258.167,212.167 262.5,207.5 Z"/></g>
<g><path style="opacity:1" fill="#337561" d="M 353.5,303.5 C 354.768,302.213 354.435,301.213 352.5,300.5C 353.008,298.096 354.175,297.429 356,298.5C 356.249,297.376 356.749,296.376 357.5,295.5C 357.833,296.167 358.167,296.833 358.5,297.5C 362.43,295.728 362.097,294.562 357.5,294C 361.192,290.656 360.525,289.99 355.5,292C 355.833,292.333 356.167,292.667 356.5,293C 353.649,294.608 350.649,295.274 347.5,295C 348.623,293.956 349.956,293.29 351.5,293C 350.167,292.667 348.833,292.333 347.5,292C 348.554,290.612 348.72,289.112 348,287.5C 346.667,289.167 345.333,290.833 344,292.5C 343.385,290.884 342.385,289.551 341,288.5C 340.882,291.371 340.216,294.038 339,296.5C 339.016,292.236 338.183,288.236 336.5,284.5C 337.718,284.891 338.552,284.224 339,282.5C 340.224,285.473 342.224,286.14 345,284.5C 346.587,280.935 346.753,277.601 345.5,274.5C 357.712,277.761 370.046,278.261 382.5,276C 391.37,273.599 400.036,270.599 408.5,267C 418.206,261.932 427.873,256.932 437.5,252C 446.147,249.98 451.98,253.146 455,261.5C 455.388,264.685 454.721,267.685 453,270.5C 445.151,278.843 435.984,285.343 425.5,290C 406.86,298.368 387.36,303.202 367,304.5C 362.465,304.404 357.965,304.07 353.5,303.5 Z"/></g>
<g><path style="opacity:0.986" fill="#34765d" d="M 288.5,310.5 C 301.713,308.903 306.546,314.569 303,327.5C 300.575,333.795 296.075,335.962 289.5,334C 286.417,333.214 284.251,331.381 283,328.5C 281.015,321.128 282.848,315.128 288.5,310.5 Z"/></g>
<g><path style="opacity:0.994" fill="#33765c" d="M 192.5,310.5 C 203.452,307.63 209.119,311.796 209.5,323C 208.548,334.31 202.881,337.643 192.5,333C 187.242,325.405 187.242,317.905 192.5,310.5 Z"/></g>
<g><path style="opacity:0.995" fill="#5cc5cc" d="M 246.5,321.5 C 253.869,322.371 257.536,326.537 257.5,334C 257.951,341.053 254.617,344.886 247.5,345.5C 236.135,343.434 232.635,337.101 237,326.5C 239.659,323.63 242.826,321.963 246.5,321.5 Z"/></g>
<g><path style="opacity:0.984" fill="#0904a7" d="M 273.5,343.5 C 287.52,343.364 291.186,349.53 284.5,362C 271.275,367.821 265.109,363.654 266,349.5C 267.707,346.41 270.207,344.41 273.5,343.5 Z"/></g>
<g><path style="opacity:0.971" fill="#0603a5" d="M 211.5,343.5 C 223.868,343.277 228.201,348.944 224.5,360.5C 217.394,366.092 210.56,365.758 204,359.5C 202.523,352.127 205.023,346.794 211.5,343.5 Z"/></g>
<g><path style="opacity:0.983" fill="#05049d" d="M 242.5,366.5 C 252.329,366.287 256.829,370.954 256,380.5C 251.827,388.01 245.994,389.51 238.5,385C 232.3,376.997 233.633,370.831 242.5,366.5 Z"/></g>
</svg>
