<?xml version="1.0" encoding="UTF-8"?>
<!DOCTYPE svg PUBLIC "-//W3C//DTD SVG 1.1//EN" "http://www.w3.org/Graphics/SVG/1.1/DTD/svg11.dtd">
<svg xmlns="http://www.w3.org/2000/svg" version="1.1" width="772px" height="419px" style="shape-rendering:geometricPrecision; text-rendering:geometricPrecision; image-rendering:optimizeQuality; fill-rule:evenodd; clip-rule:evenodd" xmlns:xlink="http://www.w3.org/1999/xlink">
<g><path style="opacity:0.984" fill="#040399" d="M 385.5,38.5 C 397.544,37.375 402.377,42.7084 400,54.5C 393.547,59.4571 386.714,59.7904 379.5,55.5C 377.55,48.3443 379.55,42.6776 385.5,38.5 Z"/></g>
<g><path style="opacity:0.967" fill="#0904a3" d="M 353.5,61.5 C 363.078,59.4411 368.745,63.1077 370.5,72.5C 369.913,79.3984 366.08,82.7317 359,82.5C 348.854,81.0277 345.521,75.361 349,65.5C 350.397,63.9297 351.897,62.5964 353.5,61.5 Z"/></g>
<g><path style="opacity:0.994" fill="#0402a1" d="M 416.5,61.5 C 425.367,59.8235 430.7,63.3235 432.5,72C 432.021,79.4194 428.021,82.9194 420.5,82.5C 409.916,80.3295 407.083,74.3295 412,64.5C 413.652,63.6006 415.152,62.6006 416.5,61.5 Z"/></g>
<g><path style="opacity:1" fill="#5bc5ce" d="M 385.5,81.5 C 398.661,79.16 403.827,84.4934 401,97.5C 395.114,104.718 388.447,105.385 381,99.5C 377.88,92.1483 379.38,86.1483 385.5,81.5 Z"/></g>
<g><path style="opacity:1" fill="#33755e" d="M 341.5,90.5 C 346.28,89.6409 349.78,91.3075 352,95.5C 354.215,101.654 353.882,107.654 351,113.5C 350.097,114.701 348.931,115.535 347.5,116C 335.771,117.605 330.605,112.438 332,100.5C 333.386,95.2847 336.552,91.9514 341.5,90.5 Z"/></g>
<g><path style="opacity:1" fill="#35785f" d="M 432.5,91.5 C 438.734,90.3734 443.568,92.3734 447,97.5C 447.667,101.833 447.667,106.167 447,110.5C 444.081,116.025 439.581,117.858 433.5,116C 427.024,111.918 424.857,106.085 427,98.5C 427.967,95.3794 429.8,93.046 432.5,91.5 Z"/></g>
<g><path style="opacity:0.997" fill="#0603a5" d="M 406.5,218.5 C 402.167,223.167 397.833,227.833 393.5,232.5C 392.596,231.791 392.263,230.791 392.5,229.5C 390.436,229.313 388.436,228.813 386.5,228C 383.516,223.509 379.849,220.009 375.5,217.5C 363.437,203.263 350.77,189.43 337.5,176C 320.486,162.162 301.153,153.162 279.5,149C 259.518,146.854 240.518,150.187 222.5,159C 211.42,163.953 200.92,169.786 191,176.5C 184.809,172.485 180.309,167.152 177.5,160.5C 177.667,159.5 177.833,158.5 178,157.5C 187.233,148.468 197.733,141.301 209.5,136C 257.526,115.048 302.859,119.715 345.5,150C 352.167,155.333 358.833,160.667 365.5,166C 374.088,174.748 382.088,183.915 389.5,193.5C 399.598,182.901 409.931,172.401 420.5,162C 472.79,114.907 528.79,110.24 588.5,148C 593.229,151.061 596.896,155.061 599.5,160C 596.976,166.217 593.809,172.05 590,177.5C 572.881,167.524 555.047,159.024 536.5,152C 515.713,146.338 495.38,147.672 475.5,156C 467.005,160.413 458.672,165.08 450.5,170C 433.438,184.218 418.771,200.384 406.5,218.5 Z"/></g>
<g><path style="opacity:0.979" fill="#0302a6" d="M 572.5,182.5 C 577.605,184.887 582.605,187.554 587.5,190.5C 588.666,208.824 588.833,227.158 588,245.5C 583.574,249.634 578.408,252.634 572.5,254.5C 571.178,230.434 571.178,206.434 572.5,182.5 Z"/></g>
<g><path style="opacity:0.96" fill="#0101a6" d="M 204.5,185.5 C 205.5,185.5 206.5,185.5 207.5,185.5C 207.833,208.176 207.5,230.843 206.5,253.5C 201.352,251.895 196.352,249.895 191.5,247.5C 190.676,244.215 190.176,240.882 190,237.5C 189.066,222.445 189.4,207.445 191,192.5C 195.232,189.469 199.732,187.135 204.5,185.5 Z"/></g>
<g><path style="opacity:0.998" fill="#d22e21" d="M 375.5,217.5 C 379.849,220.009 383.516,223.509 386.5,228C 388.436,228.813 390.436,229.313 392.5,229.5C 392.263,230.791 392.596,231.791 393.5,232.5C 392.252,235.72 391.252,239.053 390.5,242.5C 374.898,263.935 355.898,281.768 333.5,296C 276.628,326.35 223.794,320.517 175,278.5C 174.333,277.833 174.333,277.167 175,276.5C 178,272.5 181,268.5 184,264.5C 185.497,262.323 187.497,260.99 190,260.5C 202.029,266.765 214.196,272.932 226.5,279C 259.06,293.487 290.393,291.154 320.5,272C 342,257 360.334,238.833 375.5,217.5 Z"/></g>
<g><path style="opacity:1" fill="#34765e" d="M 406.5,218.5 C 422.043,240.543 441.043,259.043 463.5,274C 471.977,278.537 480.644,282.37 489.5,285.5C 490.753,288.601 490.587,291.935 489,295.5C 486.224,297.14 484.224,296.473 483,293.5C 482.552,295.224 481.718,295.891 480.5,295.5C 482.183,299.236 483.016,303.236 483,307.5C 484.216,305.038 484.882,302.371 485,299.5C 486.385,300.551 487.385,301.884 488,303.5C 489.333,301.833 490.667,300.167 492,298.5C 492.72,300.112 492.554,301.612 491.5,303C 492.833,303.333 494.167,303.667 495.5,304C 493.956,304.29 492.623,304.956 491.5,306C 494.649,306.274 497.649,305.608 500.5,304C 500.167,303.667 499.833,303.333 499.5,303C 504.525,300.99 505.192,301.656 501.5,305C 506.097,305.562 506.43,306.728 502.5,308.5C 502.167,307.833 501.833,307.167 501.5,306.5C 500.749,307.376 500.249,308.376 500,309.5C 498.175,308.429 497.008,309.096 496.5,311.5C 498.435,312.213 498.768,313.213 497.5,314.5C 466.989,308.912 440.656,295.412 418.5,274C 408.093,264.274 398.759,253.774 390.5,242.5C 391.252,239.053 392.252,235.72 393.5,232.5C 397.833,227.833 402.167,223.167 406.5,218.5 Z"/></g>
<g><path style="opacity:1" fill="#337562" d="M 497.5,314.5 C 498.768,313.213 498.435,312.213 496.5,311.5C 497.008,309.096 498.175,308.429 500,309.5C 500.249,308.376 500.749,307.376 501.5,306.5C 501.833,307.167 502.167,307.833 502.5,308.5C 506.43,306.728 506.097,305.562 501.5,305C 505.192,301.656 504.525,300.99 499.5,303C 499.833,303.333 500.167,303.667 500.5,304C 497.649,305.608 494.649,306.274 491.5,306C 492.623,304.956 493.956,304.29 495.5,304C 494.167,303.667 492.833,303.333 491.5,303C 492.554,301.612 492.72,300.112 492,298.5C 490.667,300.167 489.333,301.833 488,303.5C 487.385,301.884 486.385,300.551 485,299.5C 484.882,302.371 484.216,305.038 483,307.5C 483.016,303.236 482.183,299.236 480.5,295.5C 481.718,295.891 482.552,295.224 483,293.5C 484.224,296.473 486.224,297.14 489,295.5C 490.587,291.935 490.753,288.601 489.5,285.5C 501.712,288.761 514.046,289.261 526.5,287C 535.37,284.599 544.036,281.599 552.5,278C 562.206,272.932 571.873,267.932 581.5,263C 590.147,260.98 595.98,264.146 599,272.5C 599.388,275.685 598.721,278.685 597,281.5C 589.151,289.843 579.984,296.343 569.5,301C 550.86,309.368 531.36,314.202 511,315.5C 506.465,315.404 501.965,315.07 497.5,314.5 Z"/></g>
<g><path style="opacity:0.988" fill="#34765d" d="M 432.5,321.5 C 445.713,319.903 450.546,325.569 447,338.5C 444.575,344.795 440.075,346.962 433.5,345C 430.417,344.214 428.251,342.381 427,339.5C 425.015,332.128 426.848,326.128 432.5,321.5 Z"/></g>
<g><path style="opacity:0.994" fill="#33765c" d="M 336.5,321.5 C 347.452,318.63 353.119,322.796 353.5,334C 352.548,345.31 346.881,348.643 336.5,344C 331.242,336.405 331.242,328.905 336.5,321.5 Z"/></g>
<g><path style="opacity:0.997" fill="#5cc5cc" d="M 390.5,332.5 C 397.869,333.371 401.536,337.537 401.5,345C 401.951,352.053 398.617,355.886 391.5,356.5C 380.135,354.434 376.635,348.101 381,337.5C 383.659,334.63 386.826,332.963 390.5,332.5 Z"/></g>
<g><path style="opacity:0.984" fill="#0904a7" d="M 417.5,354.5 C 431.52,354.364 435.186,360.53 428.5,373C 415.275,378.821 409.109,374.654 410,360.5C 411.707,357.41 414.207,355.41 417.5,354.5 Z"/></g>
<g><path style="opacity:0.972" fill="#0603a5" d="M 355.5,354.5 C 367.868,354.277 372.201,359.944 368.5,371.5C 361.394,377.092 354.56,376.758 348,370.5C 346.523,363.127 349.023,357.794 355.5,354.5 Z"/></g>
<g><path style="opacity:0.983" fill="#05049d" d="M 386.5,377.5 C 396.329,377.287 400.829,381.954 400,391.5C 395.827,399.01 389.994,400.51 382.5,396C 376.3,387.997 377.633,381.831 386.5,377.5 Z"/></g>
</svg>
